<mxfile host="app.diagrams.net" modified="2021-01-21T09:52:29.392Z" agent="5.0 (Macintosh; Intel Mac OS X 11_0_1) AppleWebKit/537.36 (KHTML, like Gecko) Chrome/88.0.4324.96 Safari/537.36" etag="D3xyDkrb_0YxGSJzQQ7g" version="14.2.5" type="github">
  <diagram id="u8SM7Y_Kzt9AyCulQmiS" name="Page-1">
    <mxGraphModel dx="1178" dy="706" grid="1" gridSize="10" guides="1" tooltips="1" connect="1" arrows="1" fold="1" page="1" pageScale="1" pageWidth="827" pageHeight="1169" math="0" shadow="0">
      <root>
        <mxCell id="0" />
        <mxCell id="1" parent="0" />
        <mxCell id="Y0NiukuMd00NJ9UfFPT2-10" value="" style="rounded=0;whiteSpace=wrap;html=1;dashed=1;" vertex="1" parent="1">
          <mxGeometry x="155" y="340" width="540" height="290" as="geometry" />
        </mxCell>
        <mxCell id="Y0NiukuMd00NJ9UfFPT2-3" value="" style="edgeStyle=orthogonalEdgeStyle;rounded=0;orthogonalLoop=1;jettySize=auto;html=1;" edge="1" parent="1" source="Y0NiukuMd00NJ9UfFPT2-1" target="Y0NiukuMd00NJ9UfFPT2-2">
          <mxGeometry relative="1" as="geometry" />
        </mxCell>
        <mxCell id="Y0NiukuMd00NJ9UfFPT2-5" value="" style="edgeStyle=orthogonalEdgeStyle;rounded=0;orthogonalLoop=1;jettySize=auto;html=1;" edge="1" parent="1" source="Y0NiukuMd00NJ9UfFPT2-1" target="Y0NiukuMd00NJ9UfFPT2-4">
          <mxGeometry relative="1" as="geometry" />
        </mxCell>
        <mxCell id="Y0NiukuMd00NJ9UfFPT2-12" value="" style="edgeStyle=orthogonalEdgeStyle;rounded=0;orthogonalLoop=1;jettySize=auto;html=1;" edge="1" parent="1" source="Y0NiukuMd00NJ9UfFPT2-1" target="Y0NiukuMd00NJ9UfFPT2-11">
          <mxGeometry relative="1" as="geometry" />
        </mxCell>
        <mxCell id="Y0NiukuMd00NJ9UfFPT2-1" value="privpy TM任务调度平台" style="rounded=1;whiteSpace=wrap;html=1;" vertex="1" parent="1">
          <mxGeometry x="350" y="390" width="150" height="60" as="geometry" />
        </mxCell>
        <mxCell id="Y0NiukuMd00NJ9UfFPT2-2" value="ES计算集群资源" style="whiteSpace=wrap;html=1;rounded=1;" vertex="1" parent="1">
          <mxGeometry x="365" y="530" width="120" height="60" as="geometry" />
        </mxCell>
        <mxCell id="Y0NiukuMd00NJ9UfFPT2-4" value="DS数据源" style="whiteSpace=wrap;html=1;rounded=1;" vertex="1" parent="1">
          <mxGeometry x="520" y="530" width="90" height="60" as="geometry" />
        </mxCell>
        <mxCell id="Y0NiukuMd00NJ9UfFPT2-8" value="" style="edgeStyle=orthogonalEdgeStyle;rounded=0;orthogonalLoop=1;jettySize=auto;html=1;" edge="1" parent="1" source="Y0NiukuMd00NJ9UfFPT2-6" target="Y0NiukuMd00NJ9UfFPT2-1">
          <mxGeometry relative="1" as="geometry" />
        </mxCell>
        <mxCell id="Y0NiukuMd00NJ9UfFPT2-6" value="业务合约" style="rounded=1;whiteSpace=wrap;html=1;" vertex="1" parent="1">
          <mxGeometry x="365" y="220" width="120" height="60" as="geometry" />
        </mxCell>
        <mxCell id="Y0NiukuMd00NJ9UfFPT2-9" value="" style="edgeStyle=orthogonalEdgeStyle;rounded=0;orthogonalLoop=1;jettySize=auto;html=1;" edge="1" parent="1" source="Y0NiukuMd00NJ9UfFPT2-7" target="Y0NiukuMd00NJ9UfFPT2-6">
          <mxGeometry relative="1" as="geometry" />
        </mxCell>
        <mxCell id="Y0NiukuMd00NJ9UfFPT2-7" value="可信平台门户" style="rounded=1;whiteSpace=wrap;html=1;" vertex="1" parent="1">
          <mxGeometry x="365" y="90" width="120" height="60" as="geometry" />
        </mxCell>
        <mxCell id="Y0NiukuMd00NJ9UfFPT2-11" value="DS数据源" style="whiteSpace=wrap;html=1;rounded=1;" vertex="1" parent="1">
          <mxGeometry x="240" y="530" width="85" height="60" as="geometry" />
        </mxCell>
      </root>
    </mxGraphModel>
  </diagram>
</mxfile>
